<svg xmlns="http://www.w3.org/2000/svg" xmlns:xlink="http://www.w3.org/1999/xlink" width="500" zoomAndPan="magnify" viewBox="0 0 375 374.999991" height="500" preserveAspectRatio="xMidYMid meet" version="1.0"><defs><clipPath id="81ef79619d"><path d="M 41.5 117.171875 L 333.5 117.171875 L 333.5 302.589844 L 41.5 302.589844 Z M 41.5 117.171875 " clip-rule="nonzero"/></clipPath><clipPath id="e3973c83e7"><path d="M 42 87.28125 L 174 87.28125 L 174 171.960938 L 42 171.960938 Z M 42 87.28125 " clip-rule="nonzero"/></clipPath><clipPath id="6f4c2b3db4"><path d="M 41.5 87.28125 L 174.359375 87.28125 L 174.359375 171.960938 L 41.5 171.960938 Z M 41.5 87.28125 " clip-rule="nonzero"/></clipPath><clipPath id="2b519c3206"><path d="M 127.125 72 L 308 72 L 308 187 L 127.125 187 Z M 127.125 72 " clip-rule="nonzero"/></clipPath><clipPath id="f3bf3f1509"><path d="M 127.125 71.921875 L 308.164062 71.921875 L 308.164062 187.261719 L 127.125 187.261719 Z M 127.125 71.921875 " clip-rule="nonzero"/></clipPath></defs><rect x="-37.5" width="450" fill="#ffffff" y="-37.499999" height="449.999989" fill-opacity="1"/><rect x="-37.5" width="450" fill="#ffffff" y="-37.499999" height="449.999989" fill-opacity="1"/><rect x="-37.5" width="450" fill="#f8f4f4" y="-37.499999" height="449.999989" fill-opacity="1"/><path fill="#f6d5a3" d="M 42.738281 210.746094 L 186.65625 301.320312 L 332.261719 209.066406 L 186.65625 118.488281 Z M 42.738281 210.746094 " fill-opacity="1" fill-rule="nonzero"/><g clip-path="url(#81ef79619d)"><path fill="#f6d5a3" d="M 186.65625 302.554688 C 186.410156 302.554688 186.210938 302.507812 186.015625 302.359375 L 42.097656 211.832031 C 41.75 211.585938 41.5 211.238281 41.5 210.792969 C 41.5 210.347656 41.699219 209.953125 42.046875 209.757812 L 185.964844 117.453125 C 186.359375 117.203125 186.90625 117.203125 187.300781 117.453125 L 332.902344 208.027344 C 333.25 208.273438 333.5 208.667969 333.5 209.066406 C 333.5 209.507812 333.300781 209.90625 332.902344 210.101562 L 187.300781 302.359375 C 187.105469 302.507812 186.90625 302.554688 186.65625 302.554688 Z M 45.070312 210.746094 L 186.65625 299.835938 L 329.929688 209.015625 L 186.65625 119.972656 Z M 45.070312 210.746094 " fill-opacity="1" fill-rule="nonzero"/></g><g clip-path="url(#e3973c83e7)"><path fill="#e8b9ac" d="M 42.066406 130.015625 L 107.546875 171.382812 L 173.796875 129.246094 L 107.546875 87.878906 Z M 42.066406 130.015625 " fill-opacity="1" fill-rule="nonzero"/></g><g clip-path="url(#6f4c2b3db4)"><path fill="#ebb8b2" d="M 107.546875 171.949219 C 107.433594 171.949219 107.34375 171.925781 107.253906 171.859375 L 41.773438 130.511719 C 41.613281 130.398438 41.5 130.242188 41.5 130.039062 C 41.5 129.835938 41.589844 129.652344 41.75 129.5625 L 107.230469 87.402344 C 107.414062 87.289062 107.660156 87.289062 107.839844 87.402344 L 174.089844 128.773438 C 174.246094 128.886719 174.359375 129.066406 174.359375 129.246094 C 174.359375 129.449219 174.269531 129.632812 174.089844 129.722656 L 107.839844 171.859375 C 107.75 171.925781 107.660156 171.949219 107.546875 171.949219 Z M 43.125 130.015625 L 107.546875 170.707031 L 172.738281 129.226562 L 107.546875 88.554688 Z M 43.125 130.015625 " fill-opacity="1" fill-rule="nonzero"/></g><g clip-path="url(#2b519c3206)"><path fill="#d89d97" d="M 127.894531 130.128906 L 217.121094 186.464844 L 307.394531 129.085938 L 217.121094 72.75 Z M 127.894531 130.128906 " fill-opacity="1" fill-rule="nonzero"/></g><g clip-path="url(#f3bf3f1509)"><path fill="#d89d97" d="M 217.121094 187.230469 C 216.96875 187.230469 216.84375 187.203125 216.722656 187.109375 L 127.492188 130.804688 C 127.277344 130.652344 127.125 130.4375 127.125 130.160156 C 127.125 129.882812 127.246094 129.636719 127.464844 129.515625 L 216.691406 72.105469 C 216.9375 71.953125 217.277344 71.953125 217.519531 72.105469 L 307.792969 128.4375 C 308.007812 128.59375 308.164062 128.839844 308.164062 129.085938 C 308.164062 129.363281 308.039062 129.605469 307.792969 129.730469 L 217.519531 187.109375 C 217.398438 187.203125 217.277344 187.230469 217.121094 187.230469 Z M 129.335938 130.128906 L 217.121094 185.542969 L 305.953125 129.054688 L 217.121094 73.671875 Z M 129.335938 130.128906 " fill-opacity="1" fill-rule="nonzero"/></g></svg>